# xmcd
#
# Track frame offsets:
#	150
#	19825
#	40630
#	59382
#	81621
#	96891
#	116301
#	123858
#	138388
#	154636
#	173568
#	192279
#
# Disc length: 2828 seconds
#
# Revision: 0
# Processed by: cddbd v1.5.2PL0 Copyright (c) Steve Scherf et al.
# Submitted via: dBpowerAMP V4.0
#
DISCID=940b0a0c
DTITLE=Thomas Helmig - HELMIG HERFRA
DYEAR=1900
DGENRE=Blues
TTITLE0=OP OG NED
TTITLE1=LIVET ER FEDT
TTITLE2=LIDT FOR ONDT
TTITLE3=STØVREGN
TTITLE4=LYKKEN TIL LÅNS
TTITLE5=MALAGA
TTITLE6=NOK TIL ALLE
TTITLE7=DET DU KAN
TTITLE8=ABCD
TTITLE9=DANSK PIGE
TTITLE10=JEG HAVDE EN DRØM
TTITLE11=ALDRIG SIGE ALDRIG MERE
EXTD=
EXTT0=
EXTT1=
EXTT2=
EXTT3=
EXTT4=
EXTT5=
EXTT6=
EXTT7=
EXTT8=
EXTT9=
EXTT10=
EXTT11=
PLAYORDER=
